# xmcd CD database file
#
# Track frame offsets:
#	180
#	13355
#	24588
#	37089
#	48167
#	59631
#	120363
#	134212
#	146388
#	161177
#	175067
#	189121
#	199796
#	215770
#
# Disc length: 3037 seconds
#
# Revision: 0
# Processed by: cddbd v1.5.2PL0 Copyright (c) Steve Scherf et al.
# Submitted via: CDex 1.70beta2
#
DISCID=d20bdb0e
DTITLE=Charlie Parker - Great Master [CD1 of 10)
DYEAR=1900
DGENRE=Jazz
TTITLE0=20th Century Blues (1945)
TTITLE1=Barbados (1948)
TTITLE2=Bongo Bop (1947)
TTITLE3=Constellation (1948)
TTITLE4=Donna Lee (1947)
TTITLE5=Funky Blues (1952) 
TTITLE6=I'll Remember April (1950)
TTITLE7=La Paloma (1952)
TTITLE8=Meandering (1945)
TTITLE9=Okiedoke (1949)
TTITLE10=Relaxin' At Camarillo (1947)
TTITLE11=Slippin' At Bells (1947)
TTITLE12=Temptation (1952)
TTITLE13=Charlie Parker - Un Poquito De Tu Amor
EXTD=
EXTT0=
EXTT1=
EXTT2=
EXTT3=
EXTT4=
EXTT5=
EXTT6=
EXTT7=
EXTT8=
EXTT9=
EXTT10=
EXTT11=
EXTT12=
EXTT13=
PLAYORDER=
